REM DIRINDEX 1\2,1\3,1\4,1\5
REM DIRNAME "folder01","folder02","folder03","folder04","folder05"
TITLE ""
FILE "P1Q_t_0110-0119.mp3" MP3
  TRACK 01 AUDIO
    TITLE "3:cjc173_1241"
    INDEX 01 00:00:00
  TRACK 02 AUDIO
    TITLE "0:"
    INDEX 01 00:01:22
  TRACK 03 AUDIO
    TITLE "4:cjc173_1242"
    INDEX 01 00:01:41
  TRACK 04 AUDIO
    TITLE "0:"
    INDEX 01 00:05:10
  TRACK 05 AUDIO
    TITLE "5:cjc173_1243"
    INDEX 01 00:05:27
  TRACK 06 AUDIO
    TITLE "0:"
    INDEX 01 00:10:52
  TRACK 07 AUDIO
    TITLE "3:cjc173_1244"
    INDEX 01 00:11:22
  TRACK 08 AUDIO
    TITLE "0:"
    INDEX 01 00:12:43
  TRACK 09 AUDIO
    TITLE "4:cjc173_1245"
    INDEX 01 00:12:62
  TRACK 10 AUDIO
    TITLE "0:"
    INDEX 01 00:16:37
  TRACK 11 AUDIO
    TITLE "5:cjc173_1246"
    INDEX 01 00:16:56
  TRACK 12 AUDIO
    TITLE "0:"
    INDEX 01 00:21:34
  TRACK 13 AUDIO
    TITLE "3:cjc173_1247"
    INDEX 01 00:22:04
  TRACK 14 AUDIO
    TITLE "0:"
    INDEX 01 00:23:15
  TRACK 15 AUDIO
    TITLE "4:cjc173_1248"
    INDEX 01 00:23:37
  TRACK 16 AUDIO
    TITLE "0:"
    INDEX 01 00:26:35
  TRACK 17 AUDIO
    TITLE "5:cjc173_1249"
    INDEX 01 00:26:55
  TRACK 18 AUDIO
    TITLE "0:"
    INDEX 01 00:31:48
  TRACK 19 AUDIO
    TITLE "3:cjc173_1250"
    INDEX 01 00:32:18
  TRACK 20 AUDIO
    TITLE "0:"
    INDEX 01 00:33:31
  TRACK 21 AUDIO
    TITLE "4:cjc173_1251"
    INDEX 01 00:33:55
  TRACK 22 AUDIO
    TITLE "0:"
    INDEX 01 00:38:50
  TRACK 23 AUDIO
    TITLE "5:cjc173_1252"
    INDEX 01 00:38:70
  TRACK 24 AUDIO
    TITLE "0:"
    INDEX 01 00:43:10
  TRACK 25 AUDIO
    TITLE "3:cjc173_1253"
    INDEX 01 00:43:55
  TRACK 26 AUDIO
    TITLE "0:"
    INDEX 01 00:44:68
  TRACK 27 AUDIO
    TITLE "4:cjc173_1254"
    INDEX 01 00:45:15
  TRACK 28 AUDIO
    TITLE "0:"
    INDEX 01 00:46:52
  TRACK 29 AUDIO
    TITLE "5:cjc173_1255"
    INDEX 01 00:46:71
  TRACK 30 AUDIO
    TITLE "0:"
    INDEX 01 00:51:72
  TRACK 31 AUDIO
    TITLE "3:cjc173_1256"
    INDEX 01 00:52:44
  TRACK 32 AUDIO
    TITLE "0:"
    INDEX 01 00:53:54
  TRACK 33 AUDIO
    TITLE "4:cjc173_1257"
    INDEX 01 00:53:73
  TRACK 34 AUDIO
    TITLE "0:"
    INDEX 01 00:56:62
  TRACK 35 AUDIO
    TITLE "5:cjc173_1258"
    INDEX 01 00:57:06
  TRACK 36 AUDIO
    TITLE "0:"
    INDEX 01 01:01:02
  TRACK 37 AUDIO
    TITLE "3:cjc173_1259"
    INDEX 01 01:01:51
  TRACK 38 AUDIO
    TITLE "0:"
    INDEX 01 01:02:70
  TRACK 39 AUDIO
    TITLE "4:cjc173_1260"
    INDEX 01 01:03:17
  TRACK 40 AUDIO
    TITLE "0:"
    INDEX 01 01:06:50
  TRACK 41 AUDIO
    TITLE "5:cjc173_1261"
    INDEX 01 01:06:70
  TRACK 42 AUDIO
    TITLE "0:"
    INDEX 01 01:11:65
  TRACK 43 AUDIO
    TITLE "3:cjc173_1262"
    INDEX 01 01:12:39
  TRACK 44 AUDIO
    TITLE "0:"
    INDEX 01 01:13:39
  TRACK 45 AUDIO
    TITLE "4:cjc173_1263"
    INDEX 01 01:13:60
  TRACK 46 AUDIO
    TITLE "0:"
    INDEX 01 01:15:41
  TRACK 47 AUDIO
    TITLE "5:cjc173_1264"
    INDEX 01 01:15:61
  TRACK 48 AUDIO
    TITLE "0:"
    INDEX 01 01:20:62
  TRACK 49 AUDIO
    TITLE "3:cjc173_1265"
    INDEX 01 01:21:36
  TRACK 50 AUDIO
    TITLE "0:"
    INDEX 01 01:22:57
  TRACK 51 AUDIO
    TITLE "4:cjc173_1266"
    INDEX 01 01:23:06
  TRACK 52 AUDIO
    TITLE "0:"
    INDEX 01 01:24:38
  TRACK 53 AUDIO
    TITLE "5:cjc173_1267"
    INDEX 01 01:24:58
  TRACK 54 AUDIO
    TITLE "0:"
    INDEX 01 01:30:06
  TRACK 55 AUDIO
    TITLE "3:cjc173_1268"
    INDEX 01 01:30:51
  TRACK 56 AUDIO
    TITLE "0:"
    INDEX 01 01:31:74
  TRACK 57 AUDIO
    TITLE "4:cjc173_1269"
    INDEX 01 01:32:20
  TRACK 58 AUDIO
    TITLE "0:"
    INDEX 01 01:33:67
  TRACK 59 AUDIO
    TITLE "5:cjc173_1270"
    INDEX 01 01:34:11
  TRACK 60 AUDIO
    TITLE "0:"
    INDEX 01 01:39:03
